<svg width="100" height="100" viewBox="0 0 100 100" fill="none" xmlns="http://www.w3.org/2000/svg" style="width: 131px; height: 131px;"><style>
     .line-plane1 {animation: line-plane1-fly 3s infinite ease-in-out;}
     @keyframes line-plane1-fly{
         0% { transform: translate3d(-200px, 0, 0);}
         30% {transform: translate3d(0px, 0, 0);}
         40% {transform: translate3d(-4px, 0, 0);}
         50% {transform: translate3d(0px, 0, 0);}
         70% {transform: translate3d(-4px, 0, 0);}
         100% {transform: translate3d(240px, 0, 0);}
     }
     @media (prefers-reduced-motion: reduce) {
         .line-plane1 {
             animation: none;
         }
     }
    </style><g class="line-plane1" style="animation-duration: 2.2s;"><g filter="url(#filter0_ii)"><path class="fill1" d="M84.5 55.5C84.5 55.5 90.5 55.5 90.5 50C90.5 44.877 85.2943 44.9596 84.5807 44.995C84.5253 44.9978 84.4722 45 84.4168 45H62.5919C61.9114 45 61.2775 44.654 60.9095 44.0815L44.0905 17.9185C43.7225 17.346 43.0886 17 42.4081 17H36L44.6034 42.3574C45.0435 43.6544 44.0791 45 42.7094 45H22.9692C22.3571 45 21.7787 44.7197 21.3994 44.2393L15.1006 36.2607C14.7213 35.7803 14.1429 35.5 13.5308 35.5H9L13.7752 49.348C13.9209 49.7705 13.9209 50.2295 13.7752 50.652L9 64.5H13.5633C14.1568 64.5 14.7197 64.2364 15.0997 63.7804L21.4003 56.2196C21.7803 55.7636 22.3432 55.5 22.9368 55.5H42.6931C44.0674 55.5 45.0322 56.8541 44.5835 58.153L36 83H42.4188C43.0934 83 43.7227 82.6598 44.0922 82.0953L60.9078 56.4047C61.2773 55.8402 61.9066 55.5 62.5812 55.5H84.5Z" fill="rgba(123,67,230,0.53)" stroke-width="1.0px"></path></g><path class="stroke1" d="M84.5 55.5C84.5 55.5 90.5 55.5 90.5 50C90.5 44.877 85.2943 44.9596 84.5807 44.995C84.5253 44.9978 84.4722 45 84.4168 45H62.5919C61.9114 45 61.2775 44.654 60.9095 44.0815L44.0905 17.9185C43.7225 17.346 43.0886 17 42.4081 17H36L44.6034 42.3574C45.0435 43.6544 44.0791 45 42.7094 45H22.9692C22.3571 45 21.7787 44.7197 21.3994 44.2393L15.1006 36.2607C14.7213 35.7803 14.1429 35.5 13.5308 35.5H9L13.7752 49.348C13.9209 49.7705 13.9209 50.2295 13.7752 50.652L9 64.5H13.5633C14.1568 64.5 14.7197 64.2364 15.0997 63.7804L21.4003 56.2196C21.7803 55.7636 22.3432 55.5 22.9368 55.5H42.6931C44.0674 55.5 45.0322 56.8541 44.5835 58.153L36 83H42.4188C43.0934 83 43.7227 82.6598 44.0922 82.0953L60.9078 56.4047C61.2773 55.8402 61.9066 55.5 62.5812 55.5H84.5Z" stroke="rgba(144,74,186,0.4)" stroke-width="1.0px"></path></g><defs><filter id="filter0_ii" x="5.59741" y="12" width="89.9026" height="74" filterUnits="userSpaceOnUse" color-interpolation-filters="sRGB"><feFlood flood-opacity="0" result="BackgroundImageFix"></feFlood><feBlend mode="normal" in="SourceGraphic" in2="BackgroundImageFix" result="shape"></feBlend><feColorMatrix in="SourceAlpha" type="matrix" values="0 0 0 0 0 0 0 0 0 0 0 0 0 0 0 0 0 0 127 0" result="hardAlpha"></feColorMatrix><feOffset dx="4" dy="-4"></feOffset><feGaussianBlur stdDeviation="2"></feGaussianBlur><feComposite in2="hardAlpha" operator="arithmetic" k2="-1" k3="1"></feComposite><feColorMatrix type="matrix" values="0 0 0 0 0 0 0 0 0 0 0 0 0 0 0 0 0 0 0.3 0"></feColorMatrix><feBlend mode="normal" in2="shape" result="effect1_innerShadow"></feBlend><feColorMatrix in="SourceAlpha" type="matrix" values="0 0 0 0 0 0 0 0 0 0 0 0 0 0 0 0 0 0 127 0" result="hardAlpha"></feColorMatrix><feOffset dx="-4" dy="4"></feOffset><feGaussianBlur stdDeviation="1"></feGaussianBlur><feComposite in2="hardAlpha" operator="arithmetic" k2="-1" k3="1"></feComposite><feColorMatrix type="matrix" values="0 0 0 0 1 0 0 0 0 1 0 0 0 0 1 0 0 0 0.3 0"></feColorMatrix><feBlend mode="normal" in2="effect1_innerShadow" result="effect2_innerShadow"></feBlend></filter></defs></svg>