<svg width="50" height="50" viewBox="0 0 100 100" fill="none" xmlns="http://www.w3.org/2000/svg" style="width: 200px; height: 200px;"><style>
     .line-plane2 {animation: line-plane2-fly 3s infinite ease-in-out;}
     @keyframes line-plane2-fly{
         0% { transform: translate3d(200px, 0, 0);}
         30% {transform: translate3d(-4px, 0, 0);}
         40% {transform: translate3d(0, 0, 0);}
         50% {transform: translate3d(-4px, 0, 0);}
         70% {transform: translate3d(0, 0, 0);}
         100% {transform: translate3d(-240px, 0, 0);}
     }
     @media (prefers-reduced-motion: reduce) {
         .line-plane2 {
             animation: none;
         }
     }
    </style><path class="line-plane2 stroke1 fill1" d="M15 54.5H15.0008H15.0015L15.0025 54.5H15.0029L36.9188 54.5C37.9308 54.5 38.8746 55.0103 39.4289 55.857L56.2445 81.5477C56.4293 81.8299 56.7439 82 57.0812 82H62.0966L53.9713 58.4796C53.2982 56.5311 54.7455 54.5 56.8069 54.5H76.5632C77.4536 54.5 78.2979 54.8955 78.8679 55.5794L85.1685 63.1402C85.3585 63.3682 85.64 63.5 85.9367 63.5H89.0974L84.7794 50.978C84.5609 50.3443 84.5609 49.6557 84.7794 49.022L89.0974 36.5H85.9692C85.6632 36.5 85.374 36.6401 85.1843 36.8804L78.8854 44.8589C78.3165 45.5796 77.4489 46 76.5308 46H56.7906C54.7361 46 53.2895 43.9816 53.9496 42.0361L62.1047 18H57.0919C56.7516 18 56.4347 18.173 56.2507 18.4592L39.4316 44.6223C38.8796 45.4809 37.9289 46 36.9081 46H15.0832C15.0021 46 14.9289 45.9968 14.8698 45.9938C14.5597 45.9784 13.2702 45.9584 12.0967 46.4776C11.5257 46.7302 11.0145 47.0964 10.6434 47.6257C10.2771 48.1483 10 48.8969 10 50C10 51.1812 10.318 52.0026 10.7462 52.5915C11.1823 53.1911 11.778 53.6107 12.4167 53.9034C13.0571 54.197 13.7108 54.3487 14.2135 54.4255C14.4624 54.4636 14.6678 54.4823 14.8075 54.4914C14.8772 54.496 14.93 54.4981 14.9632 54.4991C14.9723 54.4994 14.98 54.4996 14.9861 54.4997C14.9909 54.4998 14.9948 54.4999 14.9976 54.4999L15 54.5Z" fill="rgba(199,185,220,0.19)" stroke="rgba(114,74,186,1)" stroke-width="2px" style="animation-duration: 3s;"></path></svg>