<svg width="100" height="100" viewBox="0 0 100 100" fill="none" xmlns="http://www.w3.org/2000/svg"
    style="width: 200px; height: 200px;">
    <style>
        .line-plane1 {animation: line-plane1-fly 3s infinite ease-in-out;}
        @keyframes line-plane1-fly{
        0% { transform: translate3d(-200px, 0, 0);}
        30% {transform: translate3d(0px, 0, 0);}
        40% {transform: translate3d(-4px, 0, 0);}
        50% {transform: translate3d(0px, 0, 0);}
        70% {transform: translate3d(-4px, 0, 0);}
        100% {transform: translate3d(240px, 0, 0);}
        }
        @media (prefers-reduced-motion: reduce) {
        .line-plane1 {
        animation: none;
        }
        }
    </style>
    <path class="line-plane1 stroke1 fill1"
        d="M84.5 54.5H84.4992H84.4985L84.4975 54.5H84.4971L62.5812 54.5C61.5692 54.5 60.6254 55.0103 60.0711 55.857L43.2555 81.5477C43.0707 81.8299 42.7561 82 42.4188 82H37.4034L45.5287 58.4796C46.2018 56.5311 44.7545 54.5 42.6931 54.5H22.9368C22.0464 54.5 21.2021 54.8955 20.6321 55.5794L14.3315 63.1402C14.1415 63.3682 13.86 63.5 13.5633 63.5H10.4026L14.7206 50.978C14.9391 50.3443 14.9391 49.6557 14.7206 49.022L10.4026 36.5H13.5308C13.8368 36.5 14.126 36.6401 14.3157 36.8804L20.6146 44.8589C21.1835 45.5796 22.0511 46 22.9692 46H42.7094C44.7639 46 46.2105 43.9816 45.5504 42.0361L37.3953 18H42.4081C42.7484 18 43.0653 18.173 43.2493 18.4592L60.0684 44.6223C60.6204 45.4809 61.5711 46 62.5919 46H84.4168C84.4979 46 84.5711 45.9968 84.6302 45.9938C84.9403 45.9784 86.2298 45.9584 87.4033 46.4776C87.9743 46.7302 88.4855 47.0964 88.8566 47.6257C89.2229 48.1483 89.5 48.8969 89.5 50C89.5 51.1812 89.182 52.0026 88.7538 52.5915C88.3177 53.1911 87.722 53.6107 87.0833 53.9034C86.4429 54.197 85.7892 54.3487 85.2865 54.4255C85.0376 54.4636 84.8322 54.4823 84.6925 54.4914C84.6228 54.496 84.57 54.4981 84.5368 54.4991C84.5277 54.4994 84.52 54.4996 84.5139 54.4997C84.5091 54.4998 84.5052 54.4999 84.5024 54.4999L84.5 54.5Z"
        fill="#fff" stroke="#000" stroke-width="2px" style="animation-duration: 3s;"></path>
</svg>